<svg width="152" height="32" viewBox="0 0 152 32" fill="none" xmlns="http://www.w3.org/2000/svg">
<path d="M0 5.12C0 2.2923 2.2923 0 5.12 0H26.88C29.7077 0 32 2.2923 32 5.12V26.88C32 29.7077 29.7077 32 26.88 32H5.12C2.2923 32 0 29.7077 0 26.88V5.12Z" fill="#6548F9"/>
<path d="M6.79919 16.1728H11.1927L12.0668 12.11H7.67329L6.79919 16.1728ZM5.12 24H9.5135L10.3876 19.9372H5.9941L5.12 24Z" fill="white"/>
<path d="M12.5689 24H16.5253L19.9757 7.93249H15.9963L12.5689 24Z" fill="white"/>
<path d="M22.3234 11.0771H26.4869L27.2 7.68H23.0365L22.3234 11.0771ZM19.6551 24H23.7036L26.1649 12.5003H22.1394L19.6551 24Z" fill="white"/>
<path d="M44.6705 7.54545V25H41.5852V7.54545H44.6705Z" fill="white"/>
<path d="M48.323 25V11.9091H51.4083V25H48.323ZM49.8742 10.0511C49.3855 10.0511 48.9651 9.8892 48.6128 9.56534C48.2605 9.23579 48.0844 8.84091 48.0844 8.38068C48.0844 7.91477 48.2605 7.51989 48.6128 7.19602C48.9651 6.86648 49.3855 6.7017 49.8742 6.7017C50.3685 6.7017 50.7889 6.86648 51.1355 7.19602C51.4878 7.51989 51.6639 7.91477 51.6639 8.38068C51.6639 8.84091 51.4878 9.23579 51.1355 9.56534C50.7889 9.8892 50.3685 10.0511 49.8742 10.0511Z" fill="white"/>
<path d="M58.1461 17.3295V25H55.0609V11.9091H58.0097V14.1335H58.1631C58.4643 13.4006 58.9444 12.8182 59.6035 12.3864C60.2682 11.9545 61.0893 11.7386 62.0665 11.7386C62.9699 11.7386 63.7569 11.9318 64.4273 12.3182C65.1035 12.7045 65.6262 13.2642 65.9955 13.9972C66.3705 14.7301 66.5552 15.6193 66.5495 16.6648V25H63.4643V17.142C63.4643 16.267 63.237 15.5824 62.7824 15.0881C62.3336 14.5938 61.7114 14.3466 60.916 14.3466C60.3762 14.3466 59.8961 14.4659 59.4756 14.7045C59.0609 14.9375 58.7341 15.2756 58.4955 15.7188C58.2626 16.1619 58.1461 16.6989 58.1461 17.3295Z" fill="white"/>
<path d="M72.9784 20.892L72.9698 17.1676H73.4641L78.1687 11.9091H81.7738L75.9869 18.3523H75.3477L72.9784 20.892ZM70.1659 25V7.54545H73.2511V25H70.1659ZM78.3818 25L74.1204 19.0426L76.1999 16.8693L82.0721 25H78.3818Z" fill="white"/>
<path d="M89.5663 25.2557C88.2538 25.2557 87.1203 24.983 86.1657 24.4375C85.2169 23.8864 84.4868 23.108 83.9754 22.1023C83.464 21.0909 83.2084 19.9006 83.2084 18.5312C83.2084 17.1847 83.464 16.0028 83.9754 14.9858C84.4924 13.9631 85.214 13.1676 86.1402 12.5994C87.0663 12.0256 88.1544 11.7386 89.4044 11.7386C90.2112 11.7386 90.9726 11.8693 91.6885 12.1307C92.4101 12.3864 93.0464 12.7841 93.5976 13.3239C94.1544 13.8636 94.5919 14.5511 94.9101 15.3864C95.2282 16.2159 95.3873 17.2045 95.3873 18.3523V19.2983H84.6572V17.2188H92.4299C92.4243 16.6278 92.2964 16.1023 92.0464 15.642C91.7964 15.1761 91.447 14.8097 90.9981 14.5426C90.5549 14.2756 90.0379 14.142 89.447 14.142C88.8163 14.142 88.2623 14.2955 87.7851 14.6023C87.3078 14.9034 86.9356 15.3011 86.6686 15.7955C86.4072 16.2841 86.2737 16.821 86.268 17.4062V19.2216C86.268 19.983 86.4072 20.6364 86.6856 21.1818C86.964 21.7216 87.3532 22.1364 87.8532 22.4261C88.3532 22.7102 88.9385 22.8523 89.6089 22.8523C90.0578 22.8523 90.464 22.7898 90.8277 22.6648C91.1913 22.5341 91.5066 22.3438 91.7737 22.0938C92.0407 21.8438 92.2424 21.5341 92.3788 21.1648L95.2595 21.4886C95.0777 22.25 94.7311 22.9148 94.2197 23.483C93.714 24.0455 93.0663 24.483 92.2765 24.7955C91.4868 25.1023 90.5834 25.2557 89.5663 25.2557Z" fill="white"/>
<path d="M98.4774 25V11.9091H101.469V14.0909H101.605C101.844 13.3352 102.253 12.7528 102.833 12.3438C103.418 11.929 104.085 11.7216 104.835 11.7216C105.006 11.7216 105.196 11.7301 105.406 11.7472C105.622 11.7585 105.801 11.7784 105.943 11.8068V14.6449C105.813 14.5994 105.605 14.5597 105.321 14.5256C105.043 14.4858 104.773 14.4659 104.512 14.4659C103.949 14.4659 103.443 14.5881 102.994 14.8324C102.551 15.071 102.202 15.4034 101.946 15.8295C101.69 16.2557 101.563 16.7472 101.563 17.304V25H98.4774Z" fill="white"/>
<path d="M111.558 17.3295V25H108.473V7.54545H111.49V14.1335H111.643C111.95 13.3949 112.425 12.8125 113.067 12.3864C113.715 11.9545 114.538 11.7386 115.538 11.7386C116.447 11.7386 117.24 11.929 117.916 12.3097C118.592 12.6903 119.115 13.2472 119.484 13.9801C119.859 14.7131 120.047 15.608 120.047 16.6648V25H116.962V17.142C116.962 16.2614 116.734 15.5767 116.28 15.0881C115.831 14.5938 115.2 14.3466 114.388 14.3466C113.842 14.3466 113.354 14.4659 112.922 14.7045C112.496 14.9375 112.161 15.2756 111.916 15.7188C111.678 16.1619 111.558 16.6989 111.558 17.3295Z" fill="white"/>
<path d="M132.016 19.4943V11.9091H135.101V25H132.109V22.6733H131.973C131.677 23.4063 131.192 24.0057 130.516 24.4716C129.845 24.9375 129.018 25.1705 128.035 25.1705C127.177 25.1705 126.419 24.9801 125.76 24.5994C125.106 24.2131 124.595 23.6534 124.226 22.9205C123.856 22.1818 123.672 21.2898 123.672 20.2443V11.9091H126.757V19.767C126.757 20.5966 126.984 21.2557 127.439 21.7443C127.893 22.233 128.49 22.4773 129.229 22.4773C129.683 22.4773 130.124 22.3665 130.55 22.1449C130.976 21.9233 131.325 21.5938 131.598 21.1562C131.876 20.7131 132.016 20.1591 132.016 19.4943Z" fill="white"/>
<path d="M138.89 25V7.54545H141.975V14.0739H142.103C142.262 13.7557 142.486 13.4176 142.776 13.0597C143.066 12.696 143.458 12.3864 143.952 12.1307C144.447 11.8693 145.077 11.7386 145.844 11.7386C146.856 11.7386 147.768 11.9972 148.58 12.5142C149.398 13.0256 150.046 13.7841 150.523 14.7898C151.006 15.7898 151.248 17.017 151.248 18.4716C151.248 19.9091 151.012 21.1307 150.54 22.1364C150.069 23.142 149.427 23.9091 148.614 24.4375C147.802 24.9659 146.881 25.2301 145.853 25.2301C145.103 25.2301 144.481 25.1051 143.986 24.8551C143.492 24.6051 143.094 24.304 142.793 23.9517C142.498 23.5937 142.268 23.2557 142.103 22.9375H141.924V25H138.89ZM141.915 18.4545C141.915 19.3011 142.035 20.0426 142.273 20.679C142.518 21.3153 142.867 21.8125 143.322 22.1705C143.782 22.5227 144.339 22.6989 144.992 22.6989C145.674 22.6989 146.245 22.517 146.705 22.1534C147.165 21.7841 147.512 21.2812 147.745 20.6449C147.983 20.0028 148.103 19.2727 148.103 18.4545C148.103 17.642 147.986 16.9205 147.753 16.2898C147.52 15.6591 147.174 15.1648 146.714 14.8068C146.253 14.4489 145.679 14.2699 144.992 14.2699C144.333 14.2699 143.773 14.4432 143.313 14.7898C142.853 15.1364 142.503 15.6222 142.265 16.2472C142.032 16.8722 141.915 17.608 141.915 18.4545Z" fill="white"/>
</svg>
